<svg xmlns="http://www.w3.org/2000/svg" width="124" height="96" viewBox="0 0 124 96">
    <defs>
        <linearGradient id="a" x1="43.09%" x2="169.057%" y1="96.124%" y2="7.2%">
            <stop offset="0%" stop-color="#056F9E"/>
            <stop offset="100%" stop-color="#57BEEC"/>
        </linearGradient>
        <linearGradient id="b" x1="69.358%" x2="22.219%" y1="129.323%" y2="-20.679%">
            <stop offset="0%" stop-color="#056F9E"/>
            <stop offset="100%" stop-color="#57BEEC"/>
        </linearGradient>
    </defs>
    <g fill="none" fill-rule="evenodd">
        <g>
            <rect width="17.81" height="29.809" x="24.34" fill="url(#a)" rx=".005"/>
            <path fill="url(#b)" d="M12.17.005C12.169.002 29.974 0 29.974 0c.002 0 11.961 29.804 11.961 29.804.001.003-17.804.005-17.804.005C24.129 29.809 12.17.005 12.17.005z" transform="matrix(-1 0 0 1 54.105 0)"/>
            <path fill="url(#b)" d="M.12 12.22c-.002-.002 17.803-.003 17.803-.003.002 0 11.961 17.589 11.961 17.589.001.002-17.804.003-17.804.003C12.078 29.809.12 12.22.12 12.22z"/>
            <rect width="17.81" height="29.809" y="12.217" fill="url(#b)" rx=".005"/>
        </g>
        <path fill="#FFF" d="M17.812 65.923l.1-12.385h-.075l-4.584 12.385h-2.989l-4.46-12.385H5.73l.1 12.385H1.819V48.42h6.053l4.011 11.224h.1l3.836-11.224h6.154v17.503h-4.16zm19.44-6.205c0 1.005-.184 1.916-.549 2.731a6.126 6.126 0 0 1-1.495 2.077 6.852 6.852 0 0 1-2.192 1.323c-.83.313-1.719.47-2.666.47-.93 0-1.814-.157-2.653-.47a6.677 6.677 0 0 1-2.192-1.323 6.209 6.209 0 0 1-1.482-2.077c-.366-.815-.549-1.726-.549-2.731 0-1.006.183-1.912.549-2.72a6.108 6.108 0 0 1 1.482-2.051 6.456 6.456 0 0 1 2.192-1.286 7.898 7.898 0 0 1 2.653-.445c.947 0 1.836.148 2.666.445.83.297 1.561.725 2.192 1.286a6.028 6.028 0 0 1 1.495 2.051c.365.808.548 1.714.548 2.72zm-3.937 0c0-.396-.066-.783-.2-1.162a2.91 2.91 0 0 0-1.495-1.706c-.365-.181-.788-.272-1.27-.272-.481 0-.905.09-1.27.272a2.769 2.769 0 0 0-.91.705c-.24.288-.423.622-.548 1a3.699 3.699 0 0 0 0 2.325c.125.379.312.72.561 1.026.25.304.556.548.922.729.365.181.789.272 1.27.272.482 0 .905-.09 1.27-.272.366-.181.673-.425.923-.73.249-.304.436-.646.56-1.025.125-.38.187-.767.187-1.162zM46.7 65.923v-6.724c0-.346-.03-.676-.087-.99a2.712 2.712 0 0 0-.287-.827 1.48 1.48 0 0 0-.56-.569c-.241-.14-.544-.21-.91-.21-.365 0-.685.07-.959.21-.274.14-.502.334-.685.581a2.63 2.63 0 0 0-.411.853 3.644 3.644 0 0 0-.137 1.001v6.675h-4.11V53.612h3.96v1.705h.05c.15-.263.345-.523.586-.778.24-.256.523-.474.847-.655.324-.182.677-.33 1.059-.445a4.201 4.201 0 0 1 1.22-.173c.83 0 1.537.148 2.118.445a4.04 4.04 0 0 1 1.407 1.15c.358.469.615 1.009.773 1.618.158.61.236 1.22.236 1.83v7.614H46.7zm14.082 0v-1.706h-.05c-.149.28-.344.544-.585.791-.24.247-.523.462-.847.643-.324.181-.68.33-1.071.445-.39.115-.802.173-1.233.173-.83 0-1.533-.148-2.106-.445a4.07 4.07 0 0 1-1.395-1.15 4.519 4.519 0 0 1-.772-1.607 7.23 7.23 0 0 1-.237-1.841v-7.614h4.111v6.674c0 .346.025.676.075.99.05.312.145.592.286.84.141.247.328.44.56.58.233.14.54.21.923.21.714 0 1.258-.263 1.631-.79.374-.528.56-1.146.56-1.854v-6.65h4.086v12.31h-3.936zm21.681 0v-6.724c0-.346-.025-.68-.075-1.002a2.378 2.378 0 0 0-.274-.828 1.569 1.569 0 0 0-.535-.556c-.225-.14-.52-.21-.885-.21a1.79 1.79 0 0 0-.909.222 2.018 2.018 0 0 0-.648.594 2.587 2.587 0 0 0-.386.853 3.986 3.986 0 0 0-.124 1v6.65H74.54v-7.02c0-.709-.141-1.269-.424-1.681-.282-.412-.73-.618-1.345-.618-.648 0-1.15.255-1.507.766s-.536 1.137-.536 1.88v6.674h-4.11V53.612h3.96v1.705h.05a4.3 4.3 0 0 1 .561-.766c.224-.247.494-.466.81-.655a4.512 4.512 0 0 1 2.342-.63c.896 0 1.656.18 2.28.543a3.74 3.74 0 0 1 1.456 1.558 4.708 4.708 0 0 1 1.595-1.533c.648-.379 1.436-.568 2.367-.568.847 0 1.557.152 2.13.457.573.305 1.033.7 1.382 1.187.349.486.602 1.03.76 1.631a6.95 6.95 0 0 1 .237 1.768v7.614h-4.086zm14.431-7.565c0-.643-.203-1.195-.61-1.656-.407-.462-1.017-.692-1.831-.692a3.12 3.12 0 0 0-1.096.185 2.844 2.844 0 0 0-.872.507 2.51 2.51 0 0 0-.598.754c-.15.288-.233.589-.25.902h5.257zm3.762 1.558v.494c0 .165-.008.321-.025.47h-8.993c.033.346.137.659.311.94.175.28.399.522.673.728.274.206.581.367.922.482.34.116.693.173 1.058.173.648 0 1.196-.12 1.645-.358a3.246 3.246 0 0 0 1.096-.927l2.84 1.78a5.735 5.735 0 0 1-2.305 1.94c-.955.454-2.063.68-3.325.68-.93 0-1.81-.144-2.641-.432a6.424 6.424 0 0 1-2.18-1.261 5.84 5.84 0 0 1-1.47-2.04c-.357-.807-.535-1.73-.535-2.768 0-1.006.174-1.916.523-2.732a6.174 6.174 0 0 1 1.42-2.077 6.337 6.337 0 0 1 2.117-1.322 7.291 7.291 0 0 1 2.641-.47c.913 0 1.752.153 2.516.457a5.48 5.48 0 0 1 1.968 1.323c.548.577.976 1.277 1.283 2.101.307.824.461 1.764.461 2.819zm9.399 6.007v-6.724c0-.346-.03-.676-.087-.99a2.712 2.712 0 0 0-.287-.827 1.48 1.48 0 0 0-.56-.569c-.241-.14-.544-.21-.91-.21-.365 0-.685.07-.959.21-.274.14-.502.334-.685.581a2.63 2.63 0 0 0-.41.853 3.644 3.644 0 0 0-.138 1.001v6.675h-4.11V53.612h3.96v1.705h.05c.15-.263.345-.523.586-.778.24-.256.523-.474.847-.655.324-.182.677-.33 1.059-.445a4.201 4.201 0 0 1 1.22-.173c.83 0 1.537.148 2.118.445a4.04 4.04 0 0 1 1.408 1.15c.357.469.614 1.009.772 1.618.158.61.237 1.22.237 1.83v7.614h-4.111zm10.346-9.27v4.696c0 .577.112 1.01.336 1.298.224.289.627.433 1.208.433.2 0 .411-.017.635-.05.225-.033.411-.082.561-.148l.05 2.967c-.283.098-.64.185-1.071.26a7.64 7.64 0 0 1-1.296.11c-.83 0-1.528-.103-2.093-.309-.564-.206-1.017-.502-1.357-.89a3.48 3.48 0 0 1-.735-1.384 6.663 6.663 0 0 1-.224-1.792v-5.192h-1.993v-3.04h1.968v-3.239h4.01v3.239h2.915v3.04h-2.914zM4.135 89.82H2.342V72.317h5.182c.863 0 1.665.083 2.404.247.739.165 1.378.433 1.918.804.54.37.959.853 1.258 1.446.299.593.448 1.319.448 2.176 0 .642-.116 1.227-.348 1.755a4.323 4.323 0 0 1-.947 1.372 4.543 4.543 0 0 1-1.42.927 6.22 6.22 0 0 1-1.794.445l5.157 8.33h-2.192l-4.883-8.182h-2.99v8.183zm0-9.716H7.25c1.444 0 2.557-.26 3.338-.778.78-.52 1.17-1.298 1.17-2.336 0-.577-.107-1.063-.323-1.459a2.638 2.638 0 0 0-.897-.964c-.382-.247-.847-.429-1.395-.544a8.846 8.846 0 0 0-1.819-.173H4.135v6.254zm20.336 3.041c-.05-1.088-.403-1.99-1.059-2.707-.656-.717-1.59-1.075-2.802-1.075-.565 0-1.088.103-1.57.309a4.18 4.18 0 0 0-2.142 2.052c-.216.453-.34.927-.374 1.421h7.947zm1.719.544v.37c0 .133-.008.273-.025.421h-9.666c.017.577.133 1.12.349 1.632.216.51.515.955.897 1.335.382.379.83.68 1.345.902a4.162 4.162 0 0 0 1.669.334c.88 0 1.64-.202 2.28-.606.639-.404 1.125-.87 1.457-1.397l1.27.989c-.697.873-1.465 1.5-2.304 1.879-.839.379-1.74.568-2.703.568a6.242 6.242 0 0 1-2.404-.457 5.634 5.634 0 0 1-1.906-1.273 6.027 6.027 0 0 1-1.258-1.928 6.268 6.268 0 0 1-.46-2.423c0-.873.149-1.681.448-2.423a5.86 5.86 0 0 1 1.245-1.928 5.73 5.73 0 0 1 1.869-1.273 5.838 5.838 0 0 1 2.317-.457c.913 0 1.719.152 2.416.457a4.98 4.98 0 0 1 1.744 1.236 5.3 5.3 0 0 1 1.059 1.817c.24.692.361 1.434.361 2.225zm10.744-2.794c-.282-.445-.693-.811-1.233-1.1a3.669 3.669 0 0 0-1.756-.432c-.681 0-1.296.12-1.844.358a4.17 4.17 0 0 0-1.407.989c-.39.42-.69.915-.897 1.483a5.33 5.33 0 0 0-.312 1.842c0 .66.104 1.269.312 1.83.207.56.502 1.05.884 1.47.382.42.847.75 1.395.99.548.238 1.163.358 1.844.358.747 0 1.378-.14 1.893-.42.515-.28.938-.643 1.27-1.088l1.271.939a5.547 5.547 0 0 1-1.83 1.459c-.723.362-1.591.543-2.604.543-.947 0-1.802-.152-2.566-.457a5.685 5.685 0 0 1-1.956-1.273 5.762 5.762 0 0 1-1.258-1.928 6.42 6.42 0 0 1-.448-2.423c0-.873.15-1.681.448-2.423a5.762 5.762 0 0 1 1.258-1.928 5.685 5.685 0 0 1 1.956-1.273c.764-.305 1.619-.457 2.566-.457.78 0 1.573.169 2.379.506a4.654 4.654 0 0 1 1.955 1.496l-1.32.94zm2.772-.098a37.52 37.52 0 0 0-.1-2.547h1.62a22.21 22.21 0 0 1 .1 1.978h.05a4.018 4.018 0 0 1 1.494-1.644 4.106 4.106 0 0 1 2.242-.63c.216 0 .411.008.586.024.174.017.353.05.535.1l-.224 1.581a4.964 4.964 0 0 0-1.196-.148c-.448 0-.88.082-1.295.247a2.777 2.777 0 0 0-1.084.779c-.307.354-.556.808-.747 1.36-.191.552-.287 1.215-.287 1.99v5.933h-1.694v-9.023zm16.15 9.023a22.21 22.21 0 0 1-.1-1.978h-.049c-.332.676-.872 1.224-1.62 1.644-.747.42-1.536.63-2.366.63-1.478 0-2.587-.436-3.326-1.31-.739-.873-1.108-2.027-1.108-3.46V78.25h1.694v6.403c0 .61.05 1.162.15 1.656.099.495.269.92.51 1.273.24.355.564.63.971.829.407.197.918.296 1.533.296.448 0 .884-.09 1.307-.272a3.212 3.212 0 0 0 1.134-.828c.332-.37.598-.84.797-1.409.2-.568.3-1.24.3-2.015V78.25h1.693v9.023a37.52 37.52 0 0 0 .1 2.547h-1.62zm6.435 0h-1.694V78.25h1.694v11.57zm.349-16.02c0 .347-.125.63-.374.853-.25.223-.523.334-.822.334-.3 0-.573-.111-.822-.334a1.092 1.092 0 0 1-.374-.852c0-.347.125-.63.374-.853.249-.223.523-.334.822-.334.299 0 .573.111.822.334.249.222.374.506.374.853zm8.128 5.86h-3.289v6.748c0 .429.042.783.125 1.063.083.28.203.499.361.655.158.157.345.264.56.322.217.057.45.086.698.086.233 0 .478-.033.735-.099a3.73 3.73 0 0 0 .735-.272l.075 1.459c-.299.115-.61.202-.934.26a6.048 6.048 0 0 1-1.06.086c-.315 0-.647-.041-.996-.124a2.53 2.53 0 0 1-.971-.47 2.573 2.573 0 0 1-.735-.939c-.191-.395-.287-.914-.287-1.557v-7.219H63.37V78.25h2.416v-3.263h1.694v3.263h3.289v1.41zm3.071 10.16h-1.694V78.25h1.694v11.57zm.349-16.02c0 .347-.125.63-.374.853-.249.223-.523.334-.822.334-.299 0-.573-.111-.822-.334a1.092 1.092 0 0 1-.374-.852c0-.347.125-.63.374-.853.249-.223.523-.334.822-.334.299 0 .573.111.822.334.25.222.374.506.374.853zm4.391 4.45a22.21 22.21 0 0 1 .1 1.978h.05c.332-.676.872-1.224 1.62-1.644a4.757 4.757 0 0 1 2.366-.63c1.478 0 2.587.436 3.326 1.31.739.873 1.108 2.027 1.108 3.46v7.096h-1.694v-6.403c0-.61-.05-1.162-.15-1.656-.099-.495-.27-.92-.51-1.273a2.436 2.436 0 0 0-.972-.829c-.407-.197-.917-.296-1.532-.296-.448 0-.884.09-1.308.272a3.212 3.212 0 0 0-1.133.828c-.332.37-.598.84-.797 1.409-.2.569-.3 1.24-.3 2.015v5.933H77.06v-9.023a37.52 37.52 0 0 0-.1-2.547h1.62zm12.29 13.894c.464.593 1.1 1.095 1.905 1.508a5.532 5.532 0 0 0 2.553.618c.83 0 1.537-.12 2.118-.359s1.05-.564 1.408-.976c.357-.412.618-.894.784-1.447.166-.552.25-1.14.25-1.767v-2.176h-.05c-.449.726-1.084 1.286-1.906 1.681a5.72 5.72 0 0 1-2.504.594c-.913 0-1.74-.149-2.479-.445a5.626 5.626 0 0 1-1.893-1.224 5.45 5.45 0 0 1-1.22-1.866 6.254 6.254 0 0 1-.437-2.349c0-.824.146-1.598.436-2.324a5.86 5.86 0 0 1 1.22-1.903 5.65 5.65 0 0 1 1.894-1.286c.74-.313 1.566-.47 2.48-.47.846 0 1.676.198 2.49.594a4.57 4.57 0 0 1 1.919 1.706h.05V78.25h1.693v11.47c0 .627-.087 1.295-.261 2.003a5.03 5.03 0 0 1-.972 1.953c-.473.594-1.117 1.088-1.93 1.483-.814.396-1.869.594-3.164.594a7.89 7.89 0 0 1-3.09-.618 7.452 7.452 0 0 1-2.516-1.706l1.221-1.285zm.323-8.257c0 .61.1 1.186.299 1.73.2.544.486 1.022.86 1.434.373.412.834.737 1.382.976.548.24 1.17.359 1.868.359.648 0 1.246-.107 1.794-.321a4.119 4.119 0 0 0 1.42-.915c.399-.396.71-.87.934-1.422a4.853 4.853 0 0 0 .337-1.841c0-.61-.112-1.187-.337-1.73a4.517 4.517 0 0 0-.934-1.435 4.564 4.564 0 0 0-1.42-.988 4.312 4.312 0 0 0-1.794-.371c-.697 0-1.32.123-1.868.37a4.132 4.132 0 0 0-1.383.99c-.373.411-.66.89-.86 1.433a4.99 4.99 0 0 0-.298 1.73z"/>
    </g>
</svg>
